<svg xmlns="http://www.w3.org/2000/svg" viewBox="0 0 440 280" width="440" height="280">
  <defs>
    <linearGradient id="tilebg" x1="0" y1="0" x2="1" y2="1">
      <stop offset="0" stop-color="#14152a"/>
      <stop offset="1" stop-color="#0a0b0f"/>
    </linearGradient>
    <linearGradient id="bg" x1="0" y1="0" x2="1" y2="1">
      <stop offset="0" stop-color="#1e1f3a"/>
      <stop offset="1" stop-color="#0a0b0f"/>
    </linearGradient>
    <linearGradient id="case" x1="0" y1="0" x2="1" y2="1">
      <stop offset="0" stop-color="#818cf8"/>
      <stop offset="1" stop-color="#4f46e5"/>
    </linearGradient>
    <radialGradient id="glow" cx="0.25" cy="0.5" r="0.6">
      <stop offset="0" stop-color="#6366f1" stop-opacity="0.35"/>
      <stop offset="1" stop-color="#6366f1" stop-opacity="0"/>
    </radialGradient>
  </defs>

  <rect width="440" height="280" fill="url(#tilebg)"/>
  <rect width="440" height="280" fill="url(#glow)"/>

  <!-- icon, 104px -->
  <g transform="translate(36 88) scale(0.8125)">
    <rect width="128" height="128" rx="28" fill="url(#bg)"/>
    <rect x="1" y="1" width="126" height="126" rx="27" fill="none" stroke="#ffffff" stroke-opacity="0.1" stroke-width="2"/>
    <path d="M50 42v-7a8 8 0 0 1 8-8h12a8 8 0 0 1 8 8v7" fill="none" stroke="#a5b4fc" stroke-width="7" stroke-linecap="round"/>
    <rect x="24" y="42" width="80" height="56" rx="12" fill="url(#case)"/>
    <path d="M24 63h80" stroke="#0a0b0f" stroke-opacity="0.35" stroke-width="4"/>
    <rect x="58" y="57" width="12" height="11" rx="3" fill="#c7d2fe"/>
    <circle cx="98" cy="96" r="20" fill="#0a0b0f"/>
    <circle cx="98" cy="96" r="15" fill="#10b981"/>
    <path d="M90 96.5l5.5 5.5L107 90.5" fill="none" stroke="#0a0b0f" stroke-width="4.5" stroke-linecap="round" stroke-linejoin="round"/>
  </g>

  <g font-family="Inter, -apple-system, 'Segoe UI', Helvetica, Arial, sans-serif" fill="#f1f5f9">
    <text x="168" y="122" font-size="34" font-weight="800" letter-spacing="-0.5">JobTracker</text>
    <text x="168" y="150" font-size="15" font-weight="500" fill="#a5b4fc">AI job-application tracker for Gmail</text>
    <text x="168" y="184" font-size="12.5" fill="#94a3b8">Sorts applications, interviews and offers</text>
    <text x="168" y="203" font-size="12.5" fill="#94a3b8">into Gmail labels and a private dashboard.</text>
  </g>

  <g font-family="Inter, -apple-system, 'Segoe UI', Helvetica, Arial, sans-serif" font-size="11" font-weight="600">
    <rect x="168" y="222" width="72" height="22" rx="11" fill="#10b981" fill-opacity="0.15"/>
    <text x="204" y="237" text-anchor="middle" fill="#34d399">No server</text>
    <rect x="248" y="222" width="64" height="22" rx="11" fill="#6366f1" fill-opacity="0.18"/>
    <text x="280" y="237" text-anchor="middle" fill="#a5b4fc">Private</text>
    <rect x="320" y="222" width="94" height="22" rx="11" fill="#f59e0b" fill-opacity="0.15"/>
    <text x="367" y="237" text-anchor="middle" fill="#fbbf24">Your own key</text>
  </g>
</svg>
